<?xml version="1.0" encoding="UTF-8"?>
<svg width="524px" height="113px" viewBox="0 0 524 113" version="1.1" xmlns="http://www.w3.org/2000/svg" xmlns:xlink="http://www.w3.org/1999/xlink">
    <!-- Generator: Sketch 45.1 (43504) - http://www.bohemiancoding.com/sketch -->
    <title>wekancodelogo</title>
    <desc>Created with Sketch.</desc>
    <defs/>
    <g id="Page-1" stroke="none" stroke-width="1" fill="none" fill-rule="evenodd">
        <g id="wekancodelogo" fill-rule="nonzero">
            <g id="Group" transform="translate(142.000000, 34.000000)" fill="#FFFFFF">
                <path d="M37.4,40.1 C36.1,35.6 33.7,26.4 29.9,12.6 C28.6,17.2 26.1,26.3 22.4,40.1 C21.8,42.2 21.4,43.7 21,44.6 C20.6,45.5 20.1,46.3 19.2,47.1 C18.4,47.8 17.3,48.1 15.8,48.1 C14.7,48.1 13.8,47.9 13,47.5 C12.2,47.1 11.6,46.5 11.2,45.7 C10.7,44.9 10.4,44 10.1,42.9 C9.8,41.8 9.5,40.8 9.3,39.9 C7.6,33 5,22.7 1.6,9 C1.1,7.2 0.9,5.8 0.9,4.9 C0.9,3.7 1,2.7 1.2,1.9 C1.4,1.1 1.8,0.7 2.4,0.7 C4.3,1 6,1.6 7.5,2.5 C8.9,3.5 9.8,5 10.3,7 C11.6,13 13.6,21.9 16.3,33.8 C17.4,29.6 19.7,21.3 23,8.8 C23.5,6.9 24,5.4 24.4,4.4 C24.8,3.4 25.4,2.6 26.3,1.8 C27.2,1.1 28.4,0.7 29.9,0.7 C31.5,0.7 32.7,1.1 33.6,1.8 C34.5,2.5 35.1,3.4 35.4,4.3 C35.8,5.2 36.2,6.7 36.7,8.8 C38.2,14.4 40.5,22.7 43.4,33.8 C44.4,29.4 46.4,20.4 49.4,7 C49.7,5.6 50.2,4.6 50.8,4 C51.4,3.4 52.1,2.8 52.8,2.3 C54.5,1.5 56,1 57.3,0.7 C58,0.9 58.4,1.3 58.5,2 C58.6,2.7 58.7,3.7 58.7,4.9 C58.7,5.8 58.5,7.1 58,9 C56.3,15.8 53.8,26.1 50.4,39.9 C49.8,42 49.4,43.5 49.1,44.4 C48.7,45.4 48.2,46.2 47.4,47 C46.6,47.7 45.4,48.1 43.9,48.1 C42.5,48.1 41.4,47.7 40.5,47.1 C39.6,46.4 39,45.6 38.7,44.6 C38.4,43.8 38,42.3 37.4,40.1 Z" id="Shape"/>
                <path d="M86.6,32.9 C83.8,32.9 78.2,32.9 69.8,32.9 C69.9,34.8 70.3,36.6 71,38.1 C71.8,39.6 72.8,40.7 74.1,41.4 C75.4,42.2 76.8,42.5 78.3,42.5 C79.3,42.5 80.2,42.4 81.1,42.3 C82,42.2 82.9,42 83.8,41.8 C84.8,41.5 85.6,41.2 86.1,41 C86.7,40.7 87.7,40.2 89.2,39.4 C90.5,38.4 91.7,37.5 92.8,36.4 C93.1,36.4 93.3,36.6 93.4,37.1 C93.5,37.6 93.4,38.2 93.3,39.1 C93.1,40.1 92.8,41.1 92.2,42 C91.6,42.9 90.8,43.8 89.5,44.8 C88.3,45.8 86.7,46.5 85,47.2 C83.2,47.8 81.1,48.1 78.7,48.1 C73.2,48.1 68.9,46.6 65.9,43.5 C62.8,40.4 61.4,36.1 61.4,30.7 C61.4,28.1 61.8,25.8 62.5,23.7 C63.3,21.6 64.3,19.7 65.8,18.1 C67.2,16.6 69,15.4 71.1,14.5 C73.2,13.7 75.5,13.2 78,13.2 C81.3,13.2 84.2,13.9 86.6,15.3 C89,16.7 90.8,18.5 92,20.8 C93.2,23 93.7,25.3 93.7,27.7 C93.7,29.8 93.1,31.2 91.8,31.8 C90.6,32.6 88.8,32.9 86.6,32.9 Z M69.9,28.1 C72.5,28.1 77.7,28.1 85.4,28.1 C85.2,25.2 84.4,23 83,21.5 C81.6,20.1 79.8,19.4 77.6,19.4 C75.5,19.4 73.7,20.1 72.3,21.6 C71,23 70.2,25.2 69.9,28.1 Z" id="Shape"/>
                <path d="M110.8,6.3 C110.8,9 110.8,14.4 110.8,22.4 C113.9,19.2 119.9,12.9 129.1,3.4 C130,2.5 130.7,1.9 131.3,1.4 C131.9,1 132.7,0.8 133.8,0.8 C135.1,0.8 136.2,1.2 137.1,1.9 C137.9,2.7 138.3,3.6 138.3,4.8 C138.3,6.2 137.6,7.6 136.2,8.9 C133.7,11.3 129.9,14.8 124.9,19.6 C127,22.7 131.4,28.9 137.9,38.2 C138.9,39.5 139.5,40.7 139.9,41.6 C140.4,42.6 140.6,43.5 140.6,44.4 C140.6,45.4 140.2,46.3 139.4,47 C138.6,47.8 137.5,48.1 136.1,48.1 C134.8,48.1 133.8,47.8 133,47.3 C132.2,46.7 131.5,46 131,45.1 C130.4,44.2 129.9,43.4 129.5,42.6 C127,38.8 123.4,33.2 118.5,25.7 C117.2,26.9 114.7,29.3 110.9,33 C110.9,34.5 110.9,37.7 110.9,42.5 C110.9,44.4 110,45.8 108.1,46.7 C106.3,47.6 104.7,48.1 103.3,48.1 C102.5,48.1 102,47.9 101.9,47.5 C101.8,47.1 101.7,46.5 101.7,45.9 C101.7,45.2 101.7,44.5 101.6,43.8 C101.5,43 101.5,42 101.5,40.5 C101.5,37.3 101.5,32.4 101.5,25.9 C101.5,22.6 101.5,16.1 101.5,6.4 C101.5,4.6 101.9,3.2 102.8,2.2 C103.6,1.3 104.7,0.8 106.2,0.8 C107.6,0.8 108.7,1.3 109.6,2.2 C110.3,3 110.8,4.5 110.8,6.3 Z" id="Shape"/>
                <path d="M169,43.4 C166.9,45 164.9,46.2 163,47 C161.1,47.8 158.9,48.2 156.5,48.2 C154.4,48.2 152.4,47.8 150.7,46.9 C149,46 147.7,44.9 146.9,43.4 C146,41.9 145.5,40.3 145.5,38.6 C145.5,36.3 146.2,34.3 147.7,32.6 C149.2,31 151.2,29.9 153.8,29.3 C154.4,29.2 155.7,28.9 157.8,28.5 C159.9,28 161.8,27.6 163.4,27.2 C164.9,26.8 166.6,26.4 168.4,25.9 C168.3,23.7 167.8,22 167,20.9 C166.2,19.9 164.5,19.3 162,19.3 C159.9,19.3 158.2,19.6 157.1,20.2 C156,20.8 155,21.7 154.2,22.9 C153.4,24.2 152.9,24.9 152.6,25.4 C152.3,25.8 151.6,26 150.6,26 C149.6,26 148.8,25.7 148.1,25.1 C147.4,24.5 147,23.7 147,22.7 C147,21.2 147.6,19.7 148.6,18.3 C149.6,16.9 151.3,15.7 153.6,14.9 C155.8,13.9 158.6,13.5 162,13.5 C165.8,13.5 168.7,14 170.8,14.9 C172.9,15.8 174.5,17.2 175.3,19.1 C176.2,21 176.6,23.5 176.6,26.7 C176.6,28.7 176.6,30.4 176.6,31.8 C176.6,33.2 176.6,34.7 176.6,36.4 C176.6,38 176.7,39.5 176.8,41 C177,42.5 177.2,43.7 177.4,44.8 C177.6,45.8 177.8,46.5 177.9,47.2 C178,47.7 178.1,48 178.1,48.1 L178.1,48.2 C175.5,48.1 173.6,47.7 172.3,47 C171.1,46.1 170,44.9 169,43.4 Z M168.4,31 C167.1,31.5 165.3,31.9 162.9,32.4 C160.5,32.9 158.9,33.3 157.9,33.6 C157,33.8 156.1,34.3 155.3,35 C154.5,35.7 154,36.7 154,37.9 C154,39.2 154.5,40.4 155.4,41.2 C156.4,42.1 157.7,42.6 159.3,42.6 C161,42.6 162.6,42.2 164,41.5 C165.4,40.8 166.5,39.9 167.1,38.7 C167.9,37.4 168.3,35.2 168.3,32.3 C168.4,32 168.4,31.5 168.4,31 Z" id="Shape"/>
                <path d="M193.2,18.2 C193.2,18.4 193.2,18.7 193.2,19.2 C194.7,17.3 196.3,15.8 198.1,14.9 C199.9,13.9 202,13.5 204.3,13.5 C206.5,13.5 208.5,14 210.3,15 C212.1,16 213.4,17.4 214.3,19.2 C214.9,20.2 215.2,21.3 215.4,22.6 C215.6,23.8 215.7,25.4 215.7,27.2 C215.7,30.7 215.7,36 215.7,43 C215.7,44.7 215.7,46.1 215.7,46.9 C215.6,47.7 215.5,48.2 215.2,48.2 C213.9,48.2 212.3,47.8 210.3,47.2 C208.3,46.5 207.2,45.2 207.2,43 C207.2,39.9 207.2,35.1 207.2,28.8 C207.2,26 206.8,23.8 206,22.4 C205.2,20.9 203.7,20.2 201.4,20.2 C199.9,20.2 198.4,20.7 197.2,21.6 C195.9,22.5 195.1,23.7 194.4,25.3 C194,26.6 193.8,29 193.8,32.5 C193.8,34.9 193.8,38.4 193.8,43.1 C193.8,44.8 193.4,46.2 192.6,47 C191.8,47.8 190.7,48.3 189.5,48.3 C188.2,48.3 187.3,47.8 186.5,47 C185.7,46.1 185.3,44.8 185.3,43.1 C185.3,41.2 185.3,38.3 185.3,34.5 C185.3,31.8 185.3,26.5 185.3,18.5 C185.3,16.9 185.7,15.6 186.4,14.9 C187.1,14.1 188,13.6 189.3,13.6 C190.1,13.6 190.7,13.8 191.3,14.2 C191.9,14.6 192.4,15.1 192.7,15.8 C193,16.3 193.2,17.1 193.2,18.2 Z" id="Shape"/>
                <path d="M263.8,32.9 C263.8,34.4 263.4,36 262.7,37.7 C262,39.4 260.9,41.1 259.3,42.7 C257.8,44.4 255.8,45.7 253.4,46.7 C251,47.7 248.2,48.2 245,48.2 C242.6,48.2 240.5,48 238.4,47.6 C236.5,47.1 234.6,46.4 232.9,45.5 C231.3,44.5 229.8,43.2 228.5,41.6 C227.3,40.2 226.3,38.6 225.4,36.8 C224.5,35 223.9,33.1 223.5,31 C223.1,29 222.9,26.9 222.9,24.6 C222.9,20.9 223.5,17.6 224.5,14.6 C225.6,11.7 227.1,9.2 229.1,7.1 C231.1,5.1 233.4,3.5 236.1,2.4 C238.8,1.3 241.7,0.8 244.7,0.8 C248.4,0.8 251.8,1.5 254.7,3 C257.6,4.5 259.8,6.3 261.3,8.5 C262.9,10.6 263.7,12.7 263.7,14.6 C263.7,15.7 263.3,16.6 262.6,17.5 C261.8,18.3 260.9,18.7 259.8,18.7 C258.6,18.7 257.7,18.4 257.1,17.8 C256.5,17.2 255.9,16.3 255.2,14.9 C253.9,12.7 252.5,11 250.9,9.8 C249.3,8.6 247.3,8.1 244.8,8.1 C241,8.1 238,9.6 235.7,12.5 C233.4,15.4 232.3,19.6 232.3,24.9 C232.3,28.4 232.8,31.4 233.8,33.8 C234.8,36.2 236.2,37.9 238,39.1 C239.8,40.3 242,40.8 244.4,40.8 C247.1,40.8 249.4,40.2 251.4,39.2 C253.4,38.1 255.1,36.3 256.4,33.8 C257.5,32.4 258.6,31.2 259.6,30.2 C260.6,29.3 261.7,28.8 263,28.8 C263.4,29.2 263.6,29.6 263.6,30.2 C263.8,30.9 263.8,31.7 263.8,32.9 Z" id="Shape"/>
                <path d="M303.6,30.8 C303.6,33.4 303.2,35.7 302.4,37.8 C301.6,39.9 300.5,41.8 299,43.3 C297.5,44.8 295.7,46.1 293.6,46.9 C291.5,47.7 289.2,48.1 286.5,48.1 C283.9,48.1 281.6,47.7 279.6,46.8 C277.5,46 275.7,44.8 274.2,43.3 C272.7,41.7 271.5,39.9 270.8,37.7 C270,35.6 269.6,33.3 269.6,30.7 C269.6,28.1 270,25.7 270.8,23.5 C271.6,21.4 272.7,19.5 274.2,18 C275.7,16.5 277.5,15.3 279.6,14.5 C281.7,13.7 284,13.2 286.5,13.2 C289.1,13.2 291.5,13.6 293.6,14.5 C295.7,15.3 297.5,16.5 299,18.1 C300.5,19.6 301.7,21.5 302.4,23.6 C303.2,25.9 303.6,28.2 303.6,30.8 Z M295,30.8 C295,27.3 294.2,24.6 292.8,22.7 C291.3,20.8 289.2,19.8 286.6,19.8 C284.9,19.8 283.4,20.2 282.2,21.1 C280.9,22 280,23.2 279.3,24.9 C278.6,26.6 278.2,28.6 278.2,30.8 C278.2,33 278.6,34.9 279.2,36.6 C279.9,38.3 280.9,39.6 282.1,40.5 C283.4,41.4 284.9,41.8 286.6,41.8 C289.2,41.8 291.2,40.8 292.8,38.8 C294.3,36.9 295,34.2 295,30.8 Z" id="Shape"/>
                <path d="M333.8,43.3 C333.8,43.1 333.8,42.8 333.8,42.4 C332.7,43.7 331.6,44.7 330.4,45.6 C329.3,46.4 328.1,47.1 326.8,47.5 C325.5,47.9 324.1,48.1 322.6,48.1 C320.6,48.1 318.7,47.7 316.9,46.8 C315.2,45.9 313.7,44.7 312.4,43 C311.1,41.4 310.2,39.5 309.5,37.4 C308.8,35.3 308.5,32.9 308.5,30.3 C308.5,24.9 309.8,20.8 312.4,17.8 C315,14.8 318.4,13.4 322.7,13.4 C325.2,13.4 327.2,13.8 329,14.7 C330.7,15.5 332.3,16.8 333.9,18.6 C333.9,15.8 333.9,11.6 333.9,6 C333.9,4.2 334.3,2.9 335,2 C335.7,1.1 336.7,0.7 338,0.7 C339.3,0.7 340.3,1.1 341,1.9 C341.7,2.7 342,3.9 342,5.5 C342,13.9 342,26.4 342,43.3 C342,44.9 342,46.1 342,46.9 C342,47.7 341.9,48.1 341.8,48.1 C340.6,48.1 339.4,47.8 338.3,47.2 C337,46.6 335.5,45.3 333.8,43.3 Z M317,30.7 C317,33 317.4,34.9 318.1,36.6 C318.9,38.3 319.8,39.5 321.1,40.4 C322.4,41.2 323.8,41.6 325.2,41.6 C326.7,41.6 328.1,41.2 329.3,40.4 C330.5,39.6 331.5,38.4 332.3,36.8 C333.1,35.2 333.4,33.2 333.4,30.7 C333.4,28.5 333,26.5 332.3,24.8 C331.5,23.2 330.6,21.9 329.3,21 C328,20.2 326.7,19.7 325.2,19.7 C323.7,19.7 322.2,20.2 321,21 C319.7,21.9 318.8,23.1 318.1,24.8 C317.3,26.6 317,28.5 317,30.7 Z" id="Shape"/>
                <path d="M374.3,32.9 C371.5,32.9 365.9,32.9 357.5,32.9 C357.6,34.8 358,36.6 358.7,38.1 C359.5,39.6 360.5,40.7 361.8,41.4 C363.1,42.2 364.5,42.5 366,42.5 C367,42.5 367.9,42.4 368.8,42.3 C369.7,42.2 370.6,42 371.5,41.8 C372.5,41.5 373.3,41.2 373.8,41 C374.4,40.7 375.4,40.2 376.9,39.4 C378.2,38.4 379.4,37.5 380.5,36.4 C380.8,36.4 381,36.6 381.1,37.1 C381.2,37.6 381.1,38.2 381,39.1 C380.8,40.1 380.5,41.1 379.9,42 C379.3,42.9 378.5,43.8 377.2,44.8 C376,45.8 374.4,46.5 372.7,47.2 C370.9,47.8 368.8,48.1 366.4,48.1 C360.9,48.1 356.6,46.6 353.6,43.5 C350.5,40.4 349.1,36.1 349.1,30.7 C349.1,28.1 349.5,25.8 350.2,23.7 C351,21.6 352,19.7 353.5,18.1 C354.9,16.6 356.7,15.4 358.8,14.5 C360.9,13.7 363.2,13.2 365.7,13.2 C369,13.2 371.9,13.9 374.3,15.3 C376.7,16.7 378.5,18.5 379.7,20.8 C380.9,23 381.4,25.3 381.4,27.7 C381.4,29.8 380.8,31.2 379.5,31.8 C378.3,32.6 376.5,32.9 374.3,32.9 Z M357.6,28.1 C360.2,28.1 365.4,28.1 373.1,28.1 C372.9,25.2 372.1,23 370.7,21.5 C369.3,20.1 367.5,19.4 365.3,19.4 C363.2,19.4 361.4,20.1 360,21.6 C358.6,23.1 357.9,25.2 357.6,28.1 Z" id="Shape"/>
            </g>
            <g id="Group">
                <circle id="Oval" fill="#FFFFFF" cx="57.2" cy="56.4" r="56.4"/>
                <path d="M67.5,39.1 L48.8,78.6 C48.3,79.6 47.2,80 46.2,79.5 L44.7,78.8 C43.7,78.3 43.3,77.2 43.8,76.2 L62.5,36.7 C63,35.7 64.1,35.3 65.1,35.8 L66.6,36.5 C67.5,36.9 67.9,38.1 67.5,39.1 Z" id="Shape" fill="#6C2895"/>
                <path d="M94.6,55.5 L94.6,55.5 C94.6,55.4 94.6,55.4 94.6,55.3 C94.5,54.4 93.9,53.5 93.1,53.1 L75.9,45 C74.5,44.3 72.9,44.9 72.2,46.3 L72.1,46.5 C71.4,47.9 72,49.5 73.4,50.2 L87,56.6 L73.3,63.1 C71.9,63.8 71.4,65.4 72,66.8 L72.2,67.2 C72.9,68.6 74.5,69.1 75.9,68.5 L93,60.3 C93.3,60.1 93.6,59.9 93.8,59.7 C94.3,59.2 94.7,58.5 94.7,57.8 L94.7,55.6 C94.6,55.6 94.6,55.6 94.6,55.5 Z" id="Shape" fill="#6C2895"/>
                <path d="M17.1,58.1 L17.1,58.1 C17.1,58.2 17.1,58.2 17.1,58.3 C17.2,59.2 17.8,60.1 18.6,60.5 L35.8,68.6 C37.2,69.3 38.8,68.7 39.5,67.3 L39.6,67.1 C40.3,65.7 39.7,64.1 38.3,63.4 L24.7,57 L38.4,50.5 C39.8,49.8 40.3,48.2 39.7,46.8 L39.5,46.4 C38.8,45 37.2,44.5 35.8,45.1 L18.7,53.3 C18.4,53.5 18.1,53.7 17.9,53.9 C17.4,54.4 17,55.1 17,55.8 L17,58 C17.1,58 17.1,58 17.1,58.1 Z" id="Shape" fill="#6C2895"/>
            </g>
        </g>
    </g>
</svg>